<?xml version="1.0" encoding="UTF-8"?>
<svg xmlns="http://www.w3.org/2000/svg" xmlns:xlink="http://www.w3.org/1999/xlink" version="1.1" viewBox="0 0 800 800">
  <!-- Generator: Adobe Illustrator 29.3.1, SVG Export Plug-In . SVG Version: 2.1.0 Build 151)  -->
  <defs>
    <style>
      .st0 {
        fill: url(#_Градієнт_без_назви_2);
        mix-blend-mode: soft-light;
      }

      .st0, .st1 {
        isolation: isolate;
      }

      .st2 {
        fill: #bbf452;
      }

      .st3 {
        display: none;
      }

      .st4 {
        fill: url(#_Градієнт_без_назви);
      }
    </style>
    <linearGradient id="_Градієнт_без_назви" data-name="Градієнт без назви" x1="-689.8" y1="385.1" x2="27.9" y2="738.4" gradientTransform="translate(0 800) scale(1 -1)" gradientUnits="userSpaceOnUse">
      <stop offset="0" stop-color="#c9d6d5"/>
      <stop offset="1" stop-color="#e3e3e3"/>
    </linearGradient>
    <radialGradient id="_Градієнт_без_назви_2" data-name="Градієнт без назви 2" cx="-440" cy="508.1" fx="-440" fy="508.1" r="574.5" gradientTransform="translate(0 800) scale(1 -1)" gradientUnits="userSpaceOnUse">
      <stop offset="0" stop-color="#fff"/>
      <stop offset="1" stop-color="#201600"/>
    </radialGradient>
  </defs>
  <g class="st1">
    <g id="_Шар_1" data-name="Шар_1">
      <g id="background" class="st3">
        <g>
          <rect class="st4" x="-840" y="-108.1" width="800" height="800"/>
          <rect class="st0" x="-840" y="-108.1" width="800" height="800"/>
        </g>
      </g>
      <g id="objects">
        <g>
          <path class="st2" d="M396.4,104.4C27.9,104.4,6.6,288.7,13.8,365.6c1.6,18.4,19.7,30.2,36.9,27l93-17.4s7.9-1.5,17.9-3.4c9.7-2,20.2-11.3,23.9-20.6,2.3-5.7,4.6-11.3,7.2-16.7,14.8-31,35.7-58,61-79.4,39.2-33.2,88.8-53.3,142.9-53.3,93.2,0,173.5,59.5,209.2,144.2,7.2,17,13.5,32.4,28.3,34.9l17.4,3.4,91.1,18.2c17.2,3.4,35-8.4,36.6-26.8,7.4-78.9-12.5-271.5-382.7-271.5v.2Z"/>
          <path class="st2" d="M658.2,422.6l-26.2-5.4-43.6-9.8c-14.8-87-79.5-154-162.1-167.6h-.5c-9.5-1.7-19.5-2.5-29.2-2.5-94.2,0-174.2,70.5-191.8,167.8l-70,15.5v3.9c-.7,6.6-.9,13.3-.9,19.7,0,75.2,27.1,145.2,76.3,197.3,49.2,52.1,115.5,80.8,186.2,80.8s137.1-28.7,186.2-80.8c49.2-52.1,76.3-122.4,76.3-197.3s0-12-.5-17.7v-3.9h-.2ZM396.4,281.8c30.8,0,60.8,9.8,86.3,28.3,42,30.5,67,80.6,67,134.1s0,6.1,0,8.8c-.2,3.7-.7,7.1-.9,9.6-7.4,43-37.1,66.1-55.9,66.1s-6.7-.5-9.3-3.4c-1.9-2-2.8-4.9-2.6-8.6v-138.8h-44.5v13c-5.3-2.9-11.1-5.7-17.6-7.6-9-2.7-17.9-3.9-26.4-3.9h-1.4c-13.7,0-26.2,2.7-37.6,7.9-11.6,4.9-21.8,12.3-30.4,21.4-8.6,9.1-15.3,19.7-20.6,31.9-2.8,7.1-4.9,14.7-6,22.8-.7,5.2-.9,10.6-.9,15.7,0,13.5,2.3,26.5,7,38.8,4.6,11.8,11.6,22.4,20.2,31.4,8.8,9.3,19,16.5,30.1,21.4,12.1,5.2,24.6,7.6,38.5,7.6h.9c12.5,0,23.4-2.2,32.9-6.1,8.1-2.9,15.8-7.1,23-12.8,6,11.1,21.8,18.9,40.6,18.9,39.7,0,87-33.2,102.5-125.8l26.2,6.9c-7.4,124.8-101.6,218.4-220.3,218.4s-213.8-94.6-220.5-220.4l24.1-6.4,43.1-9.8v-3.9c3.5-87.2,70.7-155.8,153.3-155.8l-.7.2ZM436.1,503.9c-1.9,8.1-9.3,14.2-17.4,19.7-7.2,4.9-16.5,7.6-27.6,7.9h-.7c-8.1,0-15.3-1.5-21.1-4.2-6.3-2.9-11.6-6.6-16-11.3-4.6-5.2-8.1-10.3-10.2-16.5-2.6-6.9-3.9-13.5-3.9-20.1s.7-9.6,2.1-13.5v-1c.5-2,.9-3.9,1.9-5.9,2.6-6.1,6-11.5,10.7-17,4.9-4.9,10.2-8.6,16.5-11.3,6.5-2.9,13.2-4.4,20.6-4.4h.7c4.6,0,9.5,1,13.9,2.5h.5c4.4,1.2,8.6,3.2,12.8,5.9,4.2,3.2,7.7,6.4,10.4,9.6l.7.7c3,3.4,5.8,6.6,6.7,10.1,2.6,11.1,2.6,36.6,0,48.9h-.5Z"/>
        </g>
      </g>
    </g>
  </g>
</svg>