<svg width="1721" height="969" viewBox="0 0 1721 969" fill="none" xmlns="http://www.w3.org/2000/svg">
<g clip-path="url(#clip0_2002_213)">
<path fill-rule="evenodd" clip-rule="evenodd" d="M239.846 334.066C239.528 333.193 238.294 333.193 237.976 334.066L236.533 338.033L232.566 339.476C231.693 339.794 231.693 341.028 232.566 341.346L236.533 342.789L237.976 346.756C238.294 347.629 239.528 347.629 239.846 346.756L241.289 342.789L245.256 341.346C246.129 341.028 246.129 339.794 245.256 339.476L241.289 338.033L239.846 334.066Z" fill="#CCCCCC"/>
</g>
<g clip-path="url(#clip1_2002_213)">
<path fill-rule="evenodd" clip-rule="evenodd" d="M23.3133 640.393C22.8363 639.084 20.9853 639.084 20.5083 640.393L18.3438 646.344L12.3933 648.508C11.0838 648.985 11.0838 650.836 12.3933 651.313L18.3438 653.478L20.5083 659.428C20.9853 660.738 22.8363 660.738 23.3133 659.428L25.4778 653.478L31.4283 651.313C32.7378 650.836 32.7378 648.985 31.4283 648.508L25.4778 646.344L23.3133 640.393Z" fill="#CCCCCC"/>
</g>
<g clip-path="url(#clip2_2002_213)">
<path fill-rule="evenodd" clip-rule="evenodd" d="M575.65 947.53C574.378 944.038 569.442 944.038 568.17 947.53L562.398 963.398L546.53 969.17C543.038 970.442 543.038 975.378 546.53 976.65L562.398 982.422L568.17 998.29C569.442 1001.78 574.378 1001.78 575.65 998.29L581.422 982.422L597.29 976.65C600.782 975.378 600.782 970.442 597.29 969.17L581.422 963.398L575.65 947.53Z" fill="#CCCCCC"/>
</g>
<g clip-path="url(#clip3_2002_213)">
<path fill-rule="evenodd" clip-rule="evenodd" d="M505.718 92.2206C505.082 90.4746 502.614 90.4746 501.978 92.2206L499.092 100.155L491.158 103.041C489.412 103.677 489.412 106.145 491.158 106.781L499.092 109.667L501.978 117.601C502.614 119.347 505.082 119.347 505.718 117.601L508.604 109.667L516.538 106.781C518.284 106.145 518.284 103.677 516.538 103.041L508.604 100.155L505.718 92.2206Z" fill="#CCCCCC"/>
</g>
<g clip-path="url(#clip4_2002_213)">
<path fill-rule="evenodd" clip-rule="evenodd" d="M8.96652 0.740356C8.60717 -0.246134 7.21275 -0.246134 6.85341 0.740356L5.22282 5.22307L0.740112 6.85366C-0.246378 7.213 -0.246378 8.60742 0.740112 8.96676L5.22282 10.5974L6.85341 15.0801C7.21275 16.0666 8.60717 16.0666 8.96652 15.0801L10.5971 10.5974L15.0798 8.96676C16.0663 8.60742 16.0663 7.213 15.0798 6.85366L10.5971 5.22307L8.96652 0.740356Z" fill="#CCCCCC"/>
</g>
<g clip-path="url(#clip5_2002_213)">
<path fill-rule="evenodd" clip-rule="evenodd" d="M1708.78 267.22C1708.14 265.474 1705.68 265.474 1705.04 267.22L1702.15 275.154L1694.22 278.04C1692.47 278.676 1692.47 281.144 1694.22 281.78L1702.15 284.666L1705.04 292.6C1705.68 294.346 1708.14 294.346 1708.78 292.6L1711.67 284.666L1719.6 281.78C1721.35 281.144 1721.35 278.676 1719.6 278.04L1711.67 275.154L1708.78 267.22Z" fill="#CCCCCC"/>
</g>
<g clip-path="url(#clip6_2002_213)">
<path fill-rule="evenodd" clip-rule="evenodd" d="M1186.69 75.5659C1186.37 74.6929 1185.13 74.6929 1184.82 75.5659L1183.37 79.5329L1179.41 80.9759C1178.53 81.2939 1178.53 82.5279 1179.41 82.8459L1183.37 84.2889L1184.82 88.2559C1185.13 89.1289 1186.37 89.1289 1186.69 88.2559L1188.13 84.2889L1192.1 82.8459C1192.97 82.5279 1192.97 81.2939 1192.1 80.9759L1188.13 79.5329L1186.69 75.5659Z" fill="#CCCCCC"/>
</g>
<g clip-path="url(#clip7_2002_213)">
<path fill-rule="evenodd" clip-rule="evenodd" d="M1538.85 768.566C1538.53 767.693 1537.29 767.693 1536.98 768.566L1535.53 772.533L1531.57 773.976C1530.69 774.294 1530.69 775.528 1531.57 775.846L1535.53 777.289L1536.98 781.256C1537.29 782.129 1538.53 782.129 1538.85 781.256L1540.29 777.289L1544.26 775.846C1545.13 775.528 1545.13 774.294 1544.26 773.976L1540.29 772.533L1538.85 768.566Z" fill="#CCCCCC"/>
</g>
<defs>
<clipPath id="clip0_2002_213">
<rect width="14" height="14" fill="white" transform="translate(231.911 333.411)"/>
</clipPath>
<clipPath id="clip1_2002_213">
<rect width="21" height="21" fill="white" transform="translate(11.4109 639.411)"/>
</clipPath>
<clipPath id="clip2_2002_213">
<rect width="56" height="56" fill="white" transform="translate(543.911 944.911)"/>
</clipPath>
<clipPath id="clip3_2002_213">
<rect width="28" height="28" fill="white" transform="translate(489.848 90.9106)"/>
</clipPath>
<clipPath id="clip4_2002_213">
<rect width="15.82" height="15.82" fill="white"/>
</clipPath>
<clipPath id="clip5_2002_213">
<rect width="28" height="28" fill="white" transform="translate(1692.91 265.911)"/>
</clipPath>
<clipPath id="clip6_2002_213">
<rect width="14" height="14" fill="white" transform="translate(1178.75 74.9106)"/>
</clipPath>
<clipPath id="clip7_2002_213">
<rect width="14" height="14" fill="white" transform="translate(1530.91 767.911)"/>
</clipPath>
</defs>
</svg>
